#define cpu_width 16
#define cpu_height 16
static unsigned char cpu_bits[] = {
   0x00, 0x00, 0x50, 0x05, 0x50, 0x05, 0xf8, 0x0f, 0x04, 0x10, 0x07, 0x70,
   0x04, 0x10, 0x07, 0x70, 0x04, 0x10, 0x07, 0x70, 0x04, 0x10, 0x07, 0x70,
   0x04, 0x10, 0xf8, 0x0f, 0x50, 0x05, 0x50, 0x05 };
