#define floppy_width 16
#define floppy_height 16
static unsigned char floppy_bits[] = {
   0xfe, 0x03, 0x02, 0x04, 0xaa, 0x0a, 0xaa, 0x12, 0xaa, 0x22, 0xaa, 0x22,
   0xaa, 0x22, 0x02, 0x20, 0x02, 0x20, 0x02, 0x20, 0x02, 0x20, 0x02, 0x20,
   0x02, 0x20, 0x02, 0x20, 0x02, 0x20, 0xfe, 0x3f };
