#define gpu_width 16
#define gpu_height 16
static unsigned char gpu_bits[] = {
   0x00, 0x00, 0x3f, 0x3f, 0x3f, 0x3f, 0x3f, 0x3f, 0x3f, 0x3f, 0x3f, 0x3f,
   0x3f, 0x3f, 0x00, 0x00, 0x00, 0x00, 0x3f, 0x3f, 0x3f, 0x3f, 0x3f, 0x3f,
   0x3f, 0x3f, 0x3f, 0x3f, 0x3f, 0x3f, 0x00, 0x00 };
