#define mem_width 16
#define mem_height 16
static unsigned char mem_bits[] = {
   0x00, 0x00, 0x00, 0x00, 0x00, 0x00, 0x00, 0x00, 0xff, 0x7f, 0x01, 0x40,
   0xfd, 0x5f, 0x01, 0x40, 0x01, 0x40, 0xfd, 0x5f, 0x01, 0x40, 0xff, 0x7f,
   0xaa, 0x2a, 0x00, 0x00, 0x00, 0x00, 0x00, 0x00 };
