#define monitoring_width 16
#define monitoring_height 16
static unsigned char monitoring_bits[] = {
   0x00, 0x00, 0x00, 0x00, 0x00, 0x00, 0x00, 0x00, 0x00, 0x00, 0xff, 0xff,
   0x01, 0x80, 0x25, 0xa1, 0x25, 0x81, 0x25, 0x81, 0x01, 0x80, 0xff, 0xff,
   0x00, 0x00, 0x00, 0x00, 0x00, 0x00, 0x00, 0x00 };
