#define planet_width 16
#define planet_height 16
static unsigned char planet_bits[] = {
   0xc0, 0x03, 0x30, 0x0c, 0x08, 0x10, 0x34, 0x21, 0x72, 0x43, 0x3a, 0x47,
   0x11, 0x87, 0x15, 0x86, 0x01, 0x82, 0x09, 0x84, 0x32, 0x46, 0x72, 0x4e,
   0x24, 0x2f, 0x08, 0x11, 0x30, 0x0c, 0xc0, 0x03 };
