#define wifi_width 16
#define wifi_height 16
static unsigned char wifi_bits[] = {
   0x00, 0x06, 0x00, 0x0e, 0x60, 0x1c, 0xe0, 0x1c, 0xc6, 0x38, 0xc6, 0x39,
   0xcc, 0x39, 0xcc, 0x79, 0xcc, 0x79, 0xcc, 0x39, 0xc6, 0x39, 0xc6, 0x38,
   0xe0, 0x1c, 0x60, 0x1c, 0x00, 0x0e, 0x00, 0x06 };
